<svg width="36" height="36" viewBox="0 0 36 36" fill="none" xmlns="http://www.w3.org/2000/svg">
<rect width="36" height="36" rx="18" fill="#ECECEC"/>
<path d="M21.5 12C21.5 14.2091 19.7091 16 17.5 16C15.2909 16 13.5 14.2091 13.5 12C13.5 9.79086 15.2909 8 17.5 8C19.7091 8 21.5 9.79086 21.5 12Z" fill="#979797" stroke="#979797" stroke-width="2"/>
<path d="M25 23.5C25 24.5663 24.3309 25.6671 22.9672 26.5495C21.6134 27.4255 19.6832 28 17.5 28C15.3168 28 13.3866 27.4255 12.0328 26.5495C10.6691 25.6671 10 24.5663 10 23.5C10 22.4337 10.6691 21.3329 12.0328 20.4505C13.3866 19.5745 15.3168 19 17.5 19C19.6832 19 21.6134 19.5745 22.9672 20.4505C24.3309 21.3329 25 22.4337 25 23.5Z" fill="#979797" stroke="#979797" stroke-width="2"/>
</svg>
