<svg width="181" height="46" viewBox="0 0 181 46" fill="none" xmlns="http://www.w3.org/2000/svg">
<path fill-rule="evenodd" clip-rule="evenodd" d="M0 19.9107C0 27.8042 4.68635 34.6308 11.4213 37.7397C11.8271 37.9295 12.2395 38.1063 12.6584 38.2633C14.8248 39.0946 17.1811 39.5462 19.6421 39.5462C21.7496 39.5462 23.7786 39.2124 25.6898 38.5906C26.665 38.2764 27.6141 37.8837 28.5173 37.419C27.9217 36.6598 27.3654 35.9398 26.8745 35.3115C26.8418 35.2657 26.809 35.2264 26.7763 35.1806C25.9058 34.0679 25.2709 33.2367 25.068 32.9618L23.2288 30.5139C22.7117 29.8397 22.2078 29.1721 21.6972 28.5045C21.5598 28.3278 21.4289 28.1511 21.2914 27.9678C21.1605 27.7911 21.0231 27.6143 20.8856 27.4311C20.4733 26.8944 20.0675 26.3511 19.6486 25.8013C19.6224 25.8406 19.5962 25.8733 19.5701 25.9126C18.6668 27.1235 15.6757 31.1487 12.6453 35.2329C12.5995 35.2133 12.5536 35.1937 12.5144 35.1675C9.69994 33.8257 7.31096 31.7182 5.6223 29.1066C3.90747 26.4559 2.90606 23.2945 2.90606 19.8976C2.90606 10.5838 10.4199 3.01105 19.6617 3.01105C28.9035 3.01105 36.4239 10.5838 36.4239 19.8976C36.4239 24.4269 34.6436 28.5438 31.7572 31.5807C30.7361 30.2782 29.6366 28.8776 28.622 27.5816C27.9414 26.7111 27.2999 25.8864 26.737 25.173C25.8142 23.9949 25.14 23.1178 24.9306 22.8298C25.4869 22.0837 26.0563 21.3899 26.5603 20.6568C27.6075 19.1383 28.321 17.5151 28.1639 15.6367C27.9872 13.516 26.4294 10.6296 22.2012 10.4791C18.5883 10.3613 14.9754 10.4529 11.2904 10.4529V24.4727C11.2904 25.5919 11.3101 26.7177 11.2839 27.8369C11.2839 27.9416 11.2839 28.0398 11.297 28.1183H14.1637C14.1703 28.1052 19.2428 21.4423 19.6813 20.8401C19.8973 21.1215 22.2863 24.2109 24.8782 27.5751C25.5 28.3801 26.1283 29.1983 26.7436 29.9968C27.7319 31.2796 28.6875 32.5167 29.4925 33.5639L31.2008 35.7762C32.019 35.1806 32.7848 34.5261 33.4982 33.8126C37.0719 30.2586 39.2907 25.3301 39.2907 19.8976C39.2907 9.07188 30.4809 0.255524 19.6486 0.255524C8.81634 0.255524 0 9.08496 0 19.9107ZM14.1507 13.7582C14.1507 13.287 14.3143 13.1692 14.779 13.1692C16.1011 13.1757 17.4298 13.1757 18.7519 13.1757C19.8908 13.1757 21.0296 13.1757 22.1619 13.1757C24.0862 13.1822 25.5916 15.0607 25.1204 16.8344C24.7735 18.15 23.9881 19.23 23.0652 20.3885C21.8609 18.8111 20.6958 17.2795 19.4784 15.6825C17.7243 18.0191 15.944 20.2838 14.1441 22.6858C14.1114 22.3782 14.1703 16.5399 14.1507 13.7582ZM15.9113 36.3783C17.7636 33.8454 19.6355 31.2469 19.8253 30.9917C19.8384 31.0048 19.8515 31.0244 19.8711 31.0571C19.8908 31.0833 19.9235 31.116 19.9497 31.1618C19.9824 31.2076 20.0217 31.26 20.0675 31.3189C20.2835 31.5938 20.6107 32.0193 21.0231 32.556C21.0885 32.641 21.154 32.7261 21.2195 32.8112C21.2849 32.8963 21.3569 32.9879 21.4289 33.0796C21.5729 33.2628 21.7169 33.4592 21.8805 33.6621C22.0376 33.865 22.2012 34.0744 22.3649 34.2904C22.535 34.5064 22.7052 34.7355 22.8885 34.9646C22.9016 34.9842 22.9212 35.0039 22.9343 35.0235C23.1765 35.3311 23.6019 35.8285 23.9488 36.2343C23.9226 36.2409 23.903 36.2474 23.8768 36.254C22.5219 36.614 21.1016 36.8038 19.6421 36.8038C18.3592 36.7972 17.1091 36.6532 15.9113 36.3783Z" fill="url(#paint0_linear_1635_3822)"/>
<path fill-rule="evenodd" clip-rule="evenodd" d="M99.1725 32.6279H107.262V29.5779H105.05V10.5445H107.262V7.19994H99.1725V10.5445H101.359V29.5779H99.1725V32.6279Z" fill="url(#paint1_linear_1635_3822)"/>
<path fill-rule="evenodd" clip-rule="evenodd" d="M168.224 32.6279H176.824V29.5779H174.363V10.5445H176.936V12.9401H180.025V7.19994H165.037V12.9401H168.126V10.5445H170.698V29.5779H168.224V32.6279Z" fill="url(#paint2_linear_1635_3822)"/>
<path fill-rule="evenodd" clip-rule="evenodd" d="M110.116 32.6279H116.478C122.408 32.6279 125.687 29.0739 125.687 23.2029V16.6446C125.687 16.6381 125.687 16.6315 125.687 16.6184C125.687 10.7474 122.408 7.19339 116.478 7.19339H110.116V10.538H112.302V16.6381V23.1702V29.5648H110.116V32.6279ZM115.994 23.1767V16.6446V10.5445H116.471C119.783 10.5445 121.878 12.2528 121.878 16.6184C121.878 16.625 121.878 16.6315 121.878 16.6446V23.1767C121.878 23.1832 121.878 23.1898 121.878 23.2029C121.878 27.5685 119.79 29.5779 116.471 29.5779H115.994V23.1767Z" fill="url(#paint3_linear_1635_3822)"/>
<path fill-rule="evenodd" clip-rule="evenodd" d="M144.36 32.6279H152.156V29.5779H149.884V14.1247L157.006 32.6279H160.324V10.5445H162.523V7.19994H156.986V23.504L150.696 7.19994H144.36V10.5445H146.546V29.5779H144.36V32.6279Z" fill="url(#paint4_linear_1635_3822)"/>
<path fill-rule="evenodd" clip-rule="evenodd" d="M84.5245 12.5408C84.5245 15.6891 92.3198 26.3446 92.3198 27.6667C92.3198 29.1852 91.3314 29.8005 89.6428 29.8005C88.877 29.8005 88.1439 29.7154 87.3782 29.5517V27.2347H84.3412V31.9735C85.8335 32.6411 87.6727 33.0141 89.5708 33.0141C94.1197 33.0141 96.0767 30.6055 96.0767 27.2937C96.0767 24.4858 88.3076 13.6993 88.3076 12.1939C88.3076 10.6362 89.4006 9.92277 91.1154 9.92277C91.6129 9.92277 92.0056 9.98822 92.5161 10.2697V12.8812H95.5531V7.73668C94.6891 7.31124 92.8892 6.82035 90.9453 6.82035C87.4174 6.82035 84.5245 8.62682 84.5245 12.5408Z" fill="url(#paint5_linear_1635_3822)"/>
<path fill-rule="evenodd" clip-rule="evenodd" d="M128.416 32.6279H141.644V27.2282H138.574V29.5779H134.3V21.5862H138.856V18.2351H134.3V10.5445H138.574V12.8942H141.644V7.19994H128.416V10.5445H130.602V29.5779H128.416V32.6279Z" fill="url(#paint6_linear_1635_3822)"/>
<path fill-rule="evenodd" clip-rule="evenodd" d="M67.7556 32.6279H80.9835V27.2282H77.9138V29.5779H73.6398V21.5862H78.1952V18.2351H73.6398V10.5445H77.9138V12.8942H80.9835V7.19994H67.7556V10.5445H69.9417V29.5779H67.7556V32.6279Z" fill="url(#paint7_linear_1635_3822)"/>
<path fill-rule="evenodd" clip-rule="evenodd" d="M49.1019 32.628H54.9794V29.5779H54.986V21.5666H56.9953L60.0978 32.6345H64.3914V29.5844H62.6438L60.6148 21.1739C63.2787 20.3296 64.3914 18.2417 64.3914 15.977V13.2215V13.1692V13.1233V13.0775V13.0382V12.999V12.9662V12.9335V12.9073V12.8812V12.8615V12.8419V12.8288V12.8157V12.8092C64.3914 9.8573 62.4999 7.21305 57.7873 7.21305H57.1917H49.0953V10.5642H51.2814V29.591H49.0953V32.628H49.1019ZM54.986 10.5445H57.1982H57.8397C58.6251 10.5445 59.2862 10.7278 59.8163 11.1074C60.3465 11.487 60.6017 12.1154 60.6017 12.9662C60.6017 12.999 60.6017 15.761 60.6017 15.7938C60.6017 16.6446 60.3465 17.273 59.8163 17.6526C59.6854 17.7442 59.548 17.8293 59.404 17.9013C58.9589 18.1173 58.4353 18.222 57.8397 18.222H54.986V10.5445Z" fill="url(#paint8_linear_1635_3822)"/>
<path d="M56.4588 45.6921H55.6341L53.0553 42.6289L55.4442 39.8276H56.2362L53.7752 42.6093L56.4588 45.6921ZM53.0487 45.6921H52.4204V39.8276H53.0487V45.6921ZM49.835 45.6921H49.0103L51.6939 42.6093L49.2198 39.8276H50.0118L52.4073 42.6289L49.835 45.6921Z" fill="#808080"/>
<path d="M60.8702 39.8342L58.743 44.7823C58.4812 45.391 58.095 45.6986 57.5911 45.6986H57.0805V45.1357H57.4536C57.65 45.1357 57.8071 45.0899 57.9249 44.9983C58.0427 44.9067 58.1409 44.7561 58.2325 44.5467L58.4747 43.9969L56.5373 39.8276H57.2049L58.7888 43.2966L60.2157 39.8276H60.8702V39.8342Z" fill="#808080"/>
<path d="M64.8233 42.4195C65.0459 42.2166 65.1571 41.9286 65.1571 41.549C65.1571 41.1694 65.0459 40.8814 64.8233 40.685C64.6008 40.4887 64.2997 40.3905 63.9201 40.3905H62.4147V42.7206H63.9201C64.2997 42.7206 64.6008 42.6224 64.8233 42.4195ZM65.7855 41.5556C65.7855 42.0792 65.6153 42.4981 65.2815 42.8122C64.9411 43.1264 64.5092 43.2835 63.979 43.2835H62.4212V45.6986H61.7929V39.8342H63.9724C64.5091 39.8342 64.9477 39.9913 65.2815 40.3054C65.6153 40.6196 65.7855 41.0385 65.7855 41.5556Z" fill="#808080"/>
<path d="M71.0152 45.6921H70.3869V43.0151H67.6052V45.6921H66.9768V39.8342H67.6052V42.4588H70.3869V39.8342H71.0152V45.6921Z" fill="#808080"/>
<path d="M75.4789 43.8267L74.3924 40.7309L73.2862 43.8267H75.4789ZM76.7945 45.6921H76.1269L75.6556 44.3634H73.0964L72.6252 45.6921H71.9576L74.1175 39.8276H74.6476L76.7945 45.6921Z" fill="#808080"/>
<path d="M81.7819 45.6921H81.1535V40.3905H79.1638V42.3999C79.1638 43.5976 79.0264 44.442 78.7449 44.9459C78.4635 45.4434 78.0315 45.6986 77.4555 45.6986H77.161V45.1358H77.3181C77.5144 45.1358 77.6846 45.0965 77.822 45.0179C77.9595 44.9394 78.0904 44.7954 78.2082 44.5925C78.326 44.3896 78.4111 44.0885 78.47 43.6958C78.5289 43.3031 78.5617 42.8057 78.5617 42.2166V39.8342H81.7884L81.7819 45.6921Z" fill="#808080"/>
<path d="M96.862 45.6921H96.2337V41.2414L94.6301 44.7692H94.0935L92.4637 41.2414V45.6921H91.8354V39.8342H92.4637L94.3749 43.9904L96.2337 39.8342H96.862V45.6921Z" fill="#808080"/>
<path d="M101.326 43.8267L100.239 40.7309L99.1331 43.8267H101.326ZM102.641 45.6921H101.974L101.502 44.3634H98.9433L98.4721 45.6921H97.8045L99.9644 39.8276H100.488L102.641 45.6921Z" fill="#808080"/>
<path d="M107.4 43.5649C107.4 43.9118 107.361 44.1933 107.289 44.4224C107.217 44.6449 107.086 44.8674 106.896 45.0703C106.483 45.5219 105.966 45.7445 105.332 45.7445C104.736 45.7445 104.252 45.5547 103.865 45.1685C103.61 44.9132 103.447 44.6253 103.381 44.3176C103.316 44.01 103.283 43.4929 103.283 42.7599C103.283 42.0268 103.316 41.5097 103.381 41.2021C103.447 40.8945 103.61 40.6131 103.865 40.3513C104.252 39.9651 104.736 39.7753 105.332 39.7753C105.875 39.7753 106.333 39.9389 106.706 40.2662C107.073 40.5934 107.302 41.0123 107.387 41.5294H106.758C106.68 41.1563 106.51 40.8618 106.261 40.6523C106.012 40.4429 105.705 40.3382 105.332 40.3382C104.919 40.3382 104.579 40.4756 104.317 40.7505C104.14 40.9338 104.029 41.1498 103.977 41.4116C103.924 41.6734 103.905 42.1185 103.905 42.7599C103.905 43.3948 103.931 43.8464 103.977 44.1082C104.022 44.37 104.14 44.5925 104.317 44.7693C104.579 45.0442 104.919 45.1816 105.332 45.1816C105.796 45.1816 106.169 45.0114 106.444 44.6776C106.667 44.4027 106.771 44.0493 106.771 43.6173V43.1657H105.332V42.629H107.4V43.5649Z" fill="#808080"/>
<path d="M111.543 43.8267L110.456 40.7309L109.35 43.8267H111.543ZM112.858 45.6921H112.191L111.72 44.3634H109.16L108.689 45.6921H108.022L110.181 39.8276H110.705L112.858 45.6921Z" fill="#808080"/>
<path d="M117.067 45.6921H113.428V45.103L116.36 40.3905H113.539V39.8342H117.067V40.3578L114.109 45.1358H117.067V45.6921Z" fill="#808080"/>
<path d="M119.011 45.6921H118.383V39.8342H119.011V45.6921Z" fill="#808080"/>
<path d="M125.039 45.6921H124.443L121.334 40.9927V45.6921H120.706V39.8342H121.295L124.411 44.514V39.8342H125.039V45.6921Z" fill="#808080"/>
<path d="M130.373 45.6921H126.734V39.8342H130.373V40.3905H127.356V42.4588H129.928V43.0151H127.356V45.1358H130.373V45.6921Z" fill="#808080"/>
<path d="M87.4305 43.3424H86.1673V42.0792H87.4305V43.3424Z" fill="#808080"/>
<defs>
<linearGradient id="paint0_linear_1635_3822" x1="5.32276" y1="33.6027" x2="33.0384" y2="5.88726" gradientUnits="userSpaceOnUse">
<stop stop-color="#AC802A"/>
<stop offset="0.502" stop-color="#AC802A"/>
<stop offset="1" stop-color="#DCC164"/>
</linearGradient>
<linearGradient id="paint1_linear_1635_3822" x1="-2.41645" y1="124.781" x2="258.107" y2="-135.743" gradientUnits="userSpaceOnUse">
<stop stop-color="#AC802A"/>
<stop offset="0.502" stop-color="#AC802A"/>
<stop offset="1" stop-color="#DCC164"/>
</linearGradient>
<linearGradient id="paint2_linear_1635_3822" x1="22.944" y1="167.021" x2="179.109" y2="10.8555" gradientUnits="userSpaceOnUse">
<stop stop-color="#AC802A"/>
<stop offset="0.502" stop-color="#AC802A"/>
<stop offset="1" stop-color="#DCC164"/>
</linearGradient>
<linearGradient id="paint3_linear_1635_3822" x1="39.036" y1="95.5449" x2="184.89" y2="-50.309" gradientUnits="userSpaceOnUse">
<stop stop-color="#AC802A"/>
<stop offset="0.502" stop-color="#AC802A"/>
<stop offset="1" stop-color="#DCC164"/>
</linearGradient>
<linearGradient id="paint4_linear_1635_3822" x1="31.1809" y1="140.228" x2="182.132" y2="-10.7232" gradientUnits="userSpaceOnUse">
<stop stop-color="#AC802A"/>
<stop offset="0.502" stop-color="#AC802A"/>
<stop offset="1" stop-color="#DCC164"/>
</linearGradient>
<linearGradient id="paint5_linear_1635_3822" x1="32.6188" y1="76.89" x2="222.591" y2="-113.083" gradientUnits="userSpaceOnUse">
<stop stop-color="#AC802A"/>
<stop offset="0.502" stop-color="#AC802A"/>
<stop offset="1" stop-color="#DCC164"/>
</linearGradient>
<linearGradient id="paint6_linear_1635_3822" x1="13.855" y1="140.272" x2="197.674" y2="-43.5471" gradientUnits="userSpaceOnUse">
<stop stop-color="#AC802A"/>
<stop offset="0.502" stop-color="#AC802A"/>
<stop offset="1" stop-color="#DCC164"/>
</linearGradient>
<linearGradient id="paint7_linear_1635_3822" x1="41.7947" y1="51.7698" x2="225.614" y2="-132.05" gradientUnits="userSpaceOnUse">
<stop stop-color="#AC802A"/>
<stop offset="0.502" stop-color="#AC802A"/>
<stop offset="1" stop-color="#DCC164"/>
</linearGradient>
<linearGradient id="paint8_linear_1635_3822" x1="50.1234" y1="25.8481" x2="204.32" y2="-128.348" gradientUnits="userSpaceOnUse">
<stop stop-color="#AC802A"/>
<stop offset="0.502" stop-color="#AC802A"/>
<stop offset="1" stop-color="#DCC164"/>
</linearGradient>
</defs>
</svg>
