<svg width="24" height="24" viewBox="0 0 24 24" fill="none" xmlns="http://www.w3.org/2000/svg">
<path fill-rule="evenodd" clip-rule="evenodd" d="M10.9287 3.42863C6.78654 3.42863 3.42869 6.78648 3.42869 10.9286C3.42869 15.0708 6.78654 18.4286 10.9287 18.4286C12.998 18.4286 14.8701 17.5915 16.228 16.2357C17.5887 14.8772 18.4287 13.0015 18.4287 10.9286C18.4287 6.78648 15.0708 3.42863 10.9287 3.42863ZM2.00012 10.9286C2.00012 5.9972 5.99726 2.00006 10.9287 2.00006C15.8601 2.00006 19.8572 5.9972 19.8572 10.9286C19.8572 13.1386 19.0537 15.1622 17.7237 16.7208L21.7901 20.78C22.0694 21.0586 22.0701 21.5114 21.7915 21.79C21.5129 22.0693 21.0601 22.07 20.7815 21.7915L16.713 17.7308C15.1551 19.0565 13.1351 19.8572 10.9287 19.8572C5.99726 19.8572 2.00012 15.86 2.00012 10.9286Z" fill="black"/>
</svg>
